<svg xmlns="http://www.w3.org/2000/svg" width="1120" height="680" viewBox="0 0 1120 680">
<rect x="0" y="0" width="1120" height="680" fill="#1F2630"/>
<rect x="0" y="0" width="1120" height="44" fill="#0D1117"/>
<line x1="0" y1="44" x2="1120" y2="44" stroke="#3A4350" stroke-width="1"/>
<rect x="0" y="44" width="1120" height="88" fill="#0D1117"/>
<line x1="0" y1="132" x2="1120" y2="132" stroke="#3A4350" stroke-width="1"/>
<rect x="0" y="132" width="240" height="522" fill="#161B22"/>
<line x1="240" y1="132" x2="240" y2="654" stroke="#3A4350" stroke-width="1"/>
<rect x="820" y="132" width="300" height="522" fill="#161B22"/>
<line x1="820" y1="132" x2="820" y2="654" stroke="#3A4350" stroke-width="1"/>
<rect x="0" y="654" width="1120" height="26" fill="#0D1117"/>
<line x1="0" y1="654" x2="1120" y2="654" stroke="#3A4350" stroke-width="1"/>
<line x1="264" y1="132" x2="264" y2="654" stroke="#283039" stroke-width="1"/>
<line x1="288" y1="132" x2="288" y2="654" stroke="#283039" stroke-width="1"/>
<line x1="312" y1="132" x2="312" y2="654" stroke="#283039" stroke-width="1"/>
<line x1="336" y1="132" x2="336" y2="654" stroke="#283039" stroke-width="1"/>
<line x1="360" y1="132" x2="360" y2="654" stroke="#283039" stroke-width="1"/>
<line x1="384" y1="132" x2="384" y2="654" stroke="#283039" stroke-width="1"/>
<line x1="408" y1="132" x2="408" y2="654" stroke="#283039" stroke-width="1"/>
<line x1="432" y1="132" x2="432" y2="654" stroke="#283039" stroke-width="1"/>
<line x1="456" y1="132" x2="456" y2="654" stroke="#283039" stroke-width="1"/>
<line x1="480" y1="132" x2="480" y2="654" stroke="#283039" stroke-width="1"/>
<line x1="504" y1="132" x2="504" y2="654" stroke="#283039" stroke-width="1"/>
<line x1="528" y1="132" x2="528" y2="654" stroke="#283039" stroke-width="1"/>
<line x1="552" y1="132" x2="552" y2="654" stroke="#283039" stroke-width="1"/>
<line x1="576" y1="132" x2="576" y2="654" stroke="#283039" stroke-width="1"/>
<line x1="600" y1="132" x2="600" y2="654" stroke="#283039" stroke-width="1"/>
<line x1="624" y1="132" x2="624" y2="654" stroke="#283039" stroke-width="1"/>
<line x1="648" y1="132" x2="648" y2="654" stroke="#283039" stroke-width="1"/>
<line x1="672" y1="132" x2="672" y2="654" stroke="#283039" stroke-width="1"/>
<line x1="696" y1="132" x2="696" y2="654" stroke="#283039" stroke-width="1"/>
<line x1="720" y1="132" x2="720" y2="654" stroke="#283039" stroke-width="1"/>
<line x1="744" y1="132" x2="744" y2="654" stroke="#283039" stroke-width="1"/>
<line x1="768" y1="132" x2="768" y2="654" stroke="#283039" stroke-width="1"/>
<line x1="792" y1="132" x2="792" y2="654" stroke="#283039" stroke-width="1"/>
<line x1="816" y1="132" x2="816" y2="654" stroke="#283039" stroke-width="1"/>
<line x1="240" y1="156" x2="820" y2="156" stroke="#283039" stroke-width="1"/>
<line x1="240" y1="180" x2="820" y2="180" stroke="#283039" stroke-width="1"/>
<line x1="240" y1="204" x2="820" y2="204" stroke="#283039" stroke-width="1"/>
<line x1="240" y1="228" x2="820" y2="228" stroke="#283039" stroke-width="1"/>
<line x1="240" y1="252" x2="820" y2="252" stroke="#283039" stroke-width="1"/>
<line x1="240" y1="276" x2="820" y2="276" stroke="#283039" stroke-width="1"/>
<line x1="240" y1="300" x2="820" y2="300" stroke="#283039" stroke-width="1"/>
<line x1="240" y1="324" x2="820" y2="324" stroke="#283039" stroke-width="1"/>
<line x1="240" y1="348" x2="820" y2="348" stroke="#283039" stroke-width="1"/>
<line x1="240" y1="372" x2="820" y2="372" stroke="#283039" stroke-width="1"/>
<line x1="240" y1="396" x2="820" y2="396" stroke="#283039" stroke-width="1"/>
<line x1="240" y1="420" x2="820" y2="420" stroke="#283039" stroke-width="1"/>
<line x1="240" y1="444" x2="820" y2="444" stroke="#283039" stroke-width="1"/>
<line x1="240" y1="468" x2="820" y2="468" stroke="#283039" stroke-width="1"/>
<line x1="240" y1="492" x2="820" y2="492" stroke="#283039" stroke-width="1"/>
<line x1="240" y1="516" x2="820" y2="516" stroke="#283039" stroke-width="1"/>
<line x1="240" y1="540" x2="820" y2="540" stroke="#283039" stroke-width="1"/>
<line x1="240" y1="564" x2="820" y2="564" stroke="#283039" stroke-width="1"/>
<line x1="240" y1="588" x2="820" y2="588" stroke="#283039" stroke-width="1"/>
<line x1="240" y1="612" x2="820" y2="612" stroke="#283039" stroke-width="1"/>
<line x1="240" y1="636" x2="820" y2="636" stroke="#283039" stroke-width="1"/>
<g transform="translate(10.46 8.46) scale(0.846)">
<path d="M16 3 L28 10 L28 22 L16 29 L4 22 L4 10 Z" fill="none" stroke="#6B9CE0" stroke-width="1.77" stroke-linejoin="miter"/>
<path d="M16 3 L28 10 L16 16 L4 10 Z" fill="#1E5FC4"/>
<path d="M16 16 L16 29 M16 16 L28 10 M16 16 L4 10" fill="none" stroke="#3A4350" stroke-width="1.18"/>
</g>
<text x="44" y="27" fill="#E1E6EB" font-size="16" font-weight="700" font-family="Inter Tight, system-ui, sans-serif" text-anchor="start" letter-spacing="0">VYD</text>
<rect x="112" y="8" width="168" height="28" fill="#2A323D" rx="5" stroke="#3A4350" stroke-width="1"/>
<circle cx="126" cy="22" r="4" fill="#1E5FC4"/>
<text x="138" y="26" fill="#E1E6EB" font-size="12" font-weight="400" font-family="Inter Tight, system-ui, sans-serif" text-anchor="start" letter-spacing="0">Gestão de Obras</text>
<text x="266" y="26" fill="#7B8794" font-size="11" font-weight="400" font-family="Inter Tight, system-ui, sans-serif" text-anchor="start" letter-spacing="0">▾</text>
<circle cx="1086" cy="22" r="13" fill="#1E5FC4"/>
<text x="1086" y="26" fill="#FFFFFF" font-size="12" font-weight="600" font-family="Inter Tight, system-ui, sans-serif" text-anchor="middle" letter-spacing="0">K</text>
<rect x="990" y="8" width="76" height="28" fill="#1E5FC4" rx="5"/>
<text x="1028" y="26" fill="#FFFFFF" font-size="12" font-weight="500" font-family="Inter Tight, system-ui, sans-serif" text-anchor="middle" letter-spacing="0">Publicar</text>
<rect x="20" y="58" width="30" height="30" fill="none" rx="3" stroke="#5A6573" stroke-width="1"/>
<text x="35" y="78" fill="#6B9CE0" font-size="15" font-weight="400" font-family="Inter Tight, system-ui, sans-serif" text-anchor="middle" letter-spacing="0">▣</text>
<text x="35" y="100" fill="#6B9CE0" font-size="11" font-weight="400" font-family="Inter Tight, system-ui, sans-serif" text-anchor="middle" letter-spacing="0">Modelo</text>
<line x1="18" y1="112" x2="52" y2="112" stroke="#1E5FC4" stroke-width="2"/>
<rect x="66" y="58" width="30" height="30" fill="none" rx="3" stroke="#5A6573" stroke-width="1"/>
<text x="81" y="78" fill="#7B8794" font-size="15" font-weight="400" font-family="Inter Tight, system-ui, sans-serif" text-anchor="middle" letter-spacing="0">⬚</text>
<text x="81" y="100" fill="#7B8794" font-size="11" font-weight="400" font-family="Inter Tight, system-ui, sans-serif" text-anchor="middle" letter-spacing="0">Níveis</text>
<text x="66" y="0" fill="#7B8794" font-size="13" font-weight="400" font-family="Inter Tight, system-ui, sans-serif" text-anchor="start" letter-spacing="0"></text>
<text x="66" y="124" fill="#7B8794" font-size="10" font-weight="400" font-family="Inter Tight, system-ui, sans-serif" text-anchor="middle" letter-spacing="1.5">PROJETO</text>
<line x1="116" y1="52" x2="116" y2="120" stroke="#3A4350" stroke-width="1"/>
<rect x="132" y="58" width="30" height="30" fill="none" rx="3" stroke="#5A6573" stroke-width="1"/>
<text x="147" y="78" fill="#7B8794" font-size="15" font-weight="400" font-family="Inter Tight, system-ui, sans-serif" text-anchor="middle" letter-spacing="0">／</text>
<text x="147" y="100" fill="#7B8794" font-size="11" font-weight="400" font-family="Inter Tight, system-ui, sans-serif" text-anchor="middle" letter-spacing="0">Parede</text>
<rect x="178" y="58" width="30" height="30" fill="none" rx="3" stroke="#5A6573" stroke-width="1"/>
<text x="193" y="78" fill="#7B8794" font-size="15" font-weight="400" font-family="Inter Tight, system-ui, sans-serif" text-anchor="middle" letter-spacing="0">▭</text>
<text x="193" y="100" fill="#7B8794" font-size="11" font-weight="400" font-family="Inter Tight, system-ui, sans-serif" text-anchor="middle" letter-spacing="0">Laje</text>
<rect x="224" y="58" width="30" height="30" fill="none" rx="3" stroke="#5A6573" stroke-width="1"/>
<text x="239" y="78" fill="#7B8794" font-size="15" font-weight="400" font-family="Inter Tight, system-ui, sans-serif" text-anchor="middle" letter-spacing="0">⊞</text>
<text x="239" y="100" fill="#7B8794" font-size="11" font-weight="400" font-family="Inter Tight, system-ui, sans-serif" text-anchor="middle" letter-spacing="0">Pilar</text>
<text x="201" y="0" fill="#7B8794" font-size="13" font-weight="400" font-family="Inter Tight, system-ui, sans-serif" text-anchor="start" letter-spacing="0"></text>
<text x="201" y="124" fill="#7B8794" font-size="10" font-weight="400" font-family="Inter Tight, system-ui, sans-serif" text-anchor="middle" letter-spacing="1.5">ELEMENTOS</text>
<line x1="274" y1="52" x2="274" y2="120" stroke="#3A4350" stroke-width="1"/>
<rect x="290" y="58" width="30" height="30" fill="none" rx="3" stroke="#5A6573" stroke-width="1"/>
<text x="305" y="78" fill="#7B8794" font-size="15" font-weight="400" font-family="Inter Tight, system-ui, sans-serif" text-anchor="middle" letter-spacing="0">↔</text>
<text x="305" y="100" fill="#7B8794" font-size="11" font-weight="400" font-family="Inter Tight, system-ui, sans-serif" text-anchor="middle" letter-spacing="0">Cota</text>
<rect x="336" y="58" width="30" height="30" fill="none" rx="3" stroke="#5A6573" stroke-width="1"/>
<text x="351" y="78" fill="#7B8794" font-size="15" font-weight="400" font-family="Inter Tight, system-ui, sans-serif" text-anchor="middle" letter-spacing="0">∠</text>
<text x="351" y="100" fill="#7B8794" font-size="11" font-weight="400" font-family="Inter Tight, system-ui, sans-serif" text-anchor="middle" letter-spacing="0">Ângulo</text>
<rect x="382" y="58" width="30" height="30" fill="none" rx="3" stroke="#5A6573" stroke-width="1"/>
<text x="397" y="78" fill="#7B8794" font-size="15" font-weight="400" font-family="Inter Tight, system-ui, sans-serif" text-anchor="middle" letter-spacing="0">⌖</text>
<text x="397" y="100" fill="#7B8794" font-size="11" font-weight="400" font-family="Inter Tight, system-ui, sans-serif" text-anchor="middle" letter-spacing="0">Medir</text>
<text x="359" y="0" fill="#7B8794" font-size="13" font-weight="400" font-family="Inter Tight, system-ui, sans-serif" text-anchor="start" letter-spacing="0"></text>
<text x="359" y="124" fill="#7B8794" font-size="10" font-weight="400" font-family="Inter Tight, system-ui, sans-serif" text-anchor="middle" letter-spacing="1.5">ANOTAR</text>
<line x1="432" y1="52" x2="432" y2="120" stroke="#3A4350" stroke-width="1"/>
<rect x="448" y="58" width="30" height="30" fill="none" rx="3" stroke="#5A6573" stroke-width="1"/>
<text x="463" y="78" fill="#7B8794" font-size="15" font-weight="400" font-family="Inter Tight, system-ui, sans-serif" text-anchor="middle" letter-spacing="0">⊡</text>
<text x="463" y="100" fill="#7B8794" font-size="11" font-weight="400" font-family="Inter Tight, system-ui, sans-serif" text-anchor="middle" letter-spacing="0">2D</text>
<rect x="494" y="58" width="30" height="30" fill="none" rx="3" stroke="#5A6573" stroke-width="1"/>
<text x="509" y="78" fill="#7B8794" font-size="15" font-weight="400" font-family="Inter Tight, system-ui, sans-serif" text-anchor="middle" letter-spacing="0">◫</text>
<text x="509" y="100" fill="#7B8794" font-size="11" font-weight="400" font-family="Inter Tight, system-ui, sans-serif" text-anchor="middle" letter-spacing="0">3D</text>
<rect x="540" y="58" width="30" height="30" fill="none" rx="3" stroke="#5A6573" stroke-width="1"/>
<text x="555" y="78" fill="#7B8794" font-size="15" font-weight="400" font-family="Inter Tight, system-ui, sans-serif" text-anchor="middle" letter-spacing="0">⎙</text>
<text x="555" y="100" fill="#7B8794" font-size="11" font-weight="400" font-family="Inter Tight, system-ui, sans-serif" text-anchor="middle" letter-spacing="0">Folha</text>
<text x="517" y="0" fill="#7B8794" font-size="13" font-weight="400" font-family="Inter Tight, system-ui, sans-serif" text-anchor="start" letter-spacing="0"></text>
<text x="517" y="124" fill="#7B8794" font-size="10" font-weight="400" font-family="Inter Tight, system-ui, sans-serif" text-anchor="middle" letter-spacing="1.5">VISTA</text>
<line x1="590" y1="52" x2="590" y2="120" stroke="#3A4350" stroke-width="1"/>
<text x="20" y="164" fill="#7B8794" font-size="11" font-weight="400" font-family="Inter Tight, system-ui, sans-serif" text-anchor="start" letter-spacing="1.5">DISCIPLINAS</text>
<rect x="0" y="178" width="240" height="30" fill="#2A323D"/>
<line x1="0" y1="178" x2="0" y2="208" stroke="#1E5FC4" stroke-width="2"/>
<line x1="2" y1="178" x2="2" y2="208" stroke="#1E5FC4" stroke-width="2"/>
<circle cx="24" cy="193" r="3.5" fill="#1E5FC4"/>
<text x="40" y="197" fill="#6B9CE0" font-size="13" font-weight="400" font-family="Inter Tight, system-ui, sans-serif" text-anchor="start" letter-spacing="0">Arquitetura</text>
<circle cx="24" cy="223" r="3.5" fill="#7B8794"/>
<text x="40" y="227" fill="#E1E6EB" font-size="13" font-weight="400" font-family="Inter Tight, system-ui, sans-serif" text-anchor="start" letter-spacing="0">Estrutura</text>
<circle cx="24" cy="253" r="3.5" fill="#7B8794"/>
<text x="40" y="257" fill="#E1E6EB" font-size="13" font-weight="400" font-family="Inter Tight, system-ui, sans-serif" text-anchor="start" letter-spacing="0">Hidráulica</text>
<circle cx="24" cy="283" r="3.5" fill="#7B8794"/>
<text x="40" y="287" fill="#E1E6EB" font-size="13" font-weight="400" font-family="Inter Tight, system-ui, sans-serif" text-anchor="start" letter-spacing="0">Elétrica</text>
<circle cx="24" cy="313" r="3.5" fill="#7B8794"/>
<text x="40" y="317" fill="#E1E6EB" font-size="13" font-weight="400" font-family="Inter Tight, system-ui, sans-serif" text-anchor="start" letter-spacing="0">HVAC</text>
<text x="20" y="352" fill="#7B8794" font-size="11" font-weight="400" font-family="Inter Tight, system-ui, sans-serif" text-anchor="start" letter-spacing="1.5">VISTAS</text>
<circle cx="24" cy="381" r="3.5" fill="#7B8794"/>
<text x="40" y="385" fill="#E1E6EB" font-size="13" font-weight="400" font-family="Inter Tight, system-ui, sans-serif" text-anchor="start" letter-spacing="0">Pavimento Térreo</text>
<circle cx="24" cy="411" r="3.5" fill="#7B8794"/>
<text x="40" y="415" fill="#E1E6EB" font-size="13" font-weight="400" font-family="Inter Tight, system-ui, sans-serif" text-anchor="start" letter-spacing="0">Pavimento Tipo</text>
<circle cx="24" cy="441" r="3.5" fill="#7B8794"/>
<text x="40" y="445" fill="#E1E6EB" font-size="13" font-weight="400" font-family="Inter Tight, system-ui, sans-serif" text-anchor="start" letter-spacing="0">Cobertura</text>
<rect x="264" y="156" width="214" height="34" fill="#2A323D" rx="5" stroke="#3A4350" stroke-width="1"/>
<text x="278" y="177" fill="#7B8794" font-size="10" font-weight="400" font-family="Inter Tight, system-ui, sans-serif" text-anchor="start" letter-spacing="0">Selecionar</text>
<text x="348" y="177" fill="#7B8794" font-size="10" font-weight="400" font-family="Inter Tight, system-ui, sans-serif" text-anchor="start" letter-spacing="0">Mover</text>
<text x="418" y="177" fill="#7B8794" font-size="10" font-weight="400" font-family="Inter Tight, system-ui, sans-serif" text-anchor="start" letter-spacing="0">Pan</text>
<rect x="360" y="300" width="360" height="225" fill="#161B22" rx="5" stroke="#5A6573" stroke-width="1"/>
<rect x="390" y="324" width="300" height="150" fill="none" stroke="#5A6573" stroke-width="2"/>
<line x1="540" y1="324" x2="540" y2="474" stroke="#5A6573" stroke-width="2"/>
<line x1="540" y1="402" x2="690" y2="402" stroke="#5A6573" stroke-width="2"/>
<rect x="406" y="340" width="88" height="118" fill="none" stroke="#1E5FC4" stroke-width="2"/>
<line x1="406" y1="486" x2="494" y2="486" stroke="#6B9CE0" stroke-width="1"/>
<line x1="406" y1="482" x2="406" y2="490" stroke="#6B9CE0" stroke-width="1"/>
<line x1="494" y1="482" x2="494" y2="490" stroke="#6B9CE0" stroke-width="1"/>
<text x="450" y="502" fill="#7B8794" font-size="9" font-weight="400" font-family="JetBrains Mono, monospace" text-anchor="middle" letter-spacing="0">4.20 m</text>
<line x1="360" y1="491" x2="720" y2="491" stroke="#3A4350" stroke-width="1"/>
<text x="378" y="512" fill="#E1E6EB" font-size="12" font-weight="400" font-family="JetBrains Mono, monospace" text-anchor="start" letter-spacing="0">Edifício Central</text>
<text x="510" y="512" fill="#7B8794" font-size="12" font-weight="400" font-family="Inter Tight, system-ui, sans-serif" text-anchor="start" letter-spacing="0">· Pavimento Térreo</text>
<text x="840" y="164" fill="#7B8794" font-size="11" font-weight="400" font-family="Inter Tight, system-ui, sans-serif" text-anchor="start" letter-spacing="1.5">PROPRIEDADES</text>
<text x="840" y="194" fill="#7B8794" font-size="12" font-weight="400" font-family="Inter Tight, system-ui, sans-serif" text-anchor="start" letter-spacing="0">ID</text>
<text x="1100" y="194" fill="#E1E6EB" font-size="12" font-weight="400" font-family="JetBrains Mono, monospace" text-anchor="end" letter-spacing="0">A-103·W12</text>
<line x1="840" y1="206" x2="1100" y2="206" stroke="#3A4350" stroke-width="1"/>
<text x="840" y="222" fill="#7B8794" font-size="12" font-weight="400" font-family="Inter Tight, system-ui, sans-serif" text-anchor="start" letter-spacing="0">Tipo</text>
<text x="1100" y="222" fill="#E1E6EB" font-size="12" font-weight="400" font-family="JetBrains Mono, monospace" text-anchor="end" letter-spacing="0">Parede</text>
<line x1="840" y1="234" x2="1100" y2="234" stroke="#3A4350" stroke-width="1"/>
<text x="840" y="250" fill="#7B8794" font-size="12" font-weight="400" font-family="Inter Tight, system-ui, sans-serif" text-anchor="start" letter-spacing="0">Nível</text>
<text x="1100" y="250" fill="#E1E6EB" font-size="12" font-weight="400" font-family="JetBrains Mono, monospace" text-anchor="end" letter-spacing="0">+0.000</text>
<line x1="840" y1="262" x2="1100" y2="262" stroke="#3A4350" stroke-width="1"/>
<text x="840" y="278" fill="#7B8794" font-size="12" font-weight="400" font-family="Inter Tight, system-ui, sans-serif" text-anchor="start" letter-spacing="0">Comprimento</text>
<text x="1100" y="278" fill="#E1E6EB" font-size="12" font-weight="400" font-family="JetBrains Mono, monospace" text-anchor="end" letter-spacing="0">4.200 m</text>
<line x1="840" y1="290" x2="1100" y2="290" stroke="#3A4350" stroke-width="1"/>
<text x="840" y="306" fill="#7B8794" font-size="12" font-weight="400" font-family="Inter Tight, system-ui, sans-serif" text-anchor="start" letter-spacing="0">Altura</text>
<text x="1100" y="306" fill="#E1E6EB" font-size="12" font-weight="400" font-family="JetBrains Mono, monospace" text-anchor="end" letter-spacing="0">2.800 m</text>
<line x1="840" y1="318" x2="1100" y2="318" stroke="#3A4350" stroke-width="1"/>
<text x="840" y="334" fill="#7B8794" font-size="12" font-weight="400" font-family="Inter Tight, system-ui, sans-serif" text-anchor="start" letter-spacing="0">Espessura</text>
<text x="1100" y="334" fill="#E1E6EB" font-size="12" font-weight="400" font-family="JetBrains Mono, monospace" text-anchor="end" letter-spacing="0">0.150 m</text>
<line x1="840" y1="346" x2="1100" y2="346" stroke="#3A4350" stroke-width="1"/>
<text x="840" y="362" fill="#7B8794" font-size="12" font-weight="400" font-family="Inter Tight, system-ui, sans-serif" text-anchor="start" letter-spacing="0">Material</text>
<text x="1100" y="362" fill="#E1E6EB" font-size="12" font-weight="400" font-family="JetBrains Mono, monospace" text-anchor="end" letter-spacing="0">Alvenaria</text>
<line x1="840" y1="374" x2="1100" y2="374" stroke="#3A4350" stroke-width="1"/>
<text x="840" y="400" fill="#7B8794" font-size="11" font-weight="400" font-family="Inter Tight, system-ui, sans-serif" text-anchor="start" letter-spacing="1.5">AÇÕES</text>
<rect x="840" y="412" width="84" height="30" fill="#1E5FC4" rx="5"/>
<text x="882" y="432" fill="#FFFFFF" font-size="12" font-weight="500" font-family="Inter Tight, system-ui, sans-serif" text-anchor="middle" letter-spacing="0">Aplicar</text>
<rect x="932" y="412" width="84" height="30" fill="none" rx="5" stroke="#3A4350" stroke-width="1"/>
<text x="974" y="432" fill="#E1E6EB" font-size="12" font-weight="400" font-family="Inter Tight, system-ui, sans-serif" text-anchor="middle" letter-spacing="0">Duplicar</text>
<text x="16" y="671" fill="#7B8794" font-size="11" font-weight="400" font-family="Inter Tight, system-ui, sans-serif" text-anchor="start" letter-spacing="0">Pronto</text>
<text x="90" y="671" fill="#7B8794" font-size="11" font-weight="400" font-family="Inter Tight, system-ui, sans-serif" text-anchor="start" letter-spacing="0">X</text>
<text x="104" y="671" fill="#E1E6EB" font-size="11" font-weight="400" font-family="JetBrains Mono, monospace" text-anchor="start" letter-spacing="0">12.480</text>
<text x="150" y="671" fill="#7B8794" font-size="11" font-weight="400" font-family="Inter Tight, system-ui, sans-serif" text-anchor="start" letter-spacing="0">Y</text>
<text x="164" y="671" fill="#E1E6EB" font-size="11" font-weight="400" font-family="JetBrains Mono, monospace" text-anchor="start" letter-spacing="0">8.250</text>
<text x="220" y="671" fill="#7B8794" font-size="11" font-weight="400" font-family="Inter Tight, system-ui, sans-serif" text-anchor="start" letter-spacing="0">Escala</text>
<text x="262" y="671" fill="#E1E6EB" font-size="11" font-weight="400" font-family="JetBrains Mono, monospace" text-anchor="start" letter-spacing="0">1:100</text>
<text x="872" y="671" fill="#7B8794" font-size="11" font-weight="400" font-family="Inter Tight, system-ui, sans-serif" text-anchor="start" letter-spacing="0">Obra:</text>
<text x="910" y="671" fill="#E1E6EB" font-size="11" font-weight="400" font-family="JetBrains Mono, monospace" text-anchor="start" letter-spacing="0">Edifício Central</text>
<text x="1024" y="671" fill="#7B8794" font-size="11" font-weight="400" font-family="Inter Tight, system-ui, sans-serif" text-anchor="start" letter-spacing="0">Zoom</text>
<text x="1104" y="671" fill="#E1E6EB" font-size="11" font-weight="400" font-family="JetBrains Mono, monospace" text-anchor="end" letter-spacing="0">100%</text>
</svg>